# Wavefront OBJ file
# Exported by Misfit Model 3D 1.3.7
# Fri May  2 13:28:35 2014

mtllib steak_raw.mtl

# 42 Vertices
v -0.80523 1.0 -3.430528
v 2.170702 1.0 0.040844
v 1.878263 1.0 -3.693467
v -0.527123 1.0 -3.547153
v -0.436026 0.0 -3.745642
v -0.527123 0.0 -3.547153
v 1.878263 0.0 -3.693467
v 2.170702 0.0 0.040844
v -0.80523 0.0 -3.430528
v -1.092308 0.0 -3.466413
v -1.307616 0.0 -3.60098
v -2.787862 0.0 -3.340816
v -0.436026 1.0 -3.745642
v -3.119796 0.0 -2.856372
v -3.083911 0.0 -1.447896
v 2.294958 0.0 -0.558564
v -2.743006 0.0 -0.434152
v -2.411072 0.0 -0.021478
v 2.798868 0.0 -1.304739
v -1.944571 0.0 1.360085
v -1.881772 0.0 1.781731
v -2.043253 0.0 3.324774
v -1.020538 0.0 3.208149
v -0.150333 0.0 3.315803
v 0.944553 0.0 2.385017
v 2.818249 0.0 -1.58092
v -1.092308 1.0 -3.466413
v -1.307616 1.0 -3.60098
v -2.787862 1.0 -3.340816
v -3.119796 1.0 -2.856372
v -3.083911 1.0 -1.447896
v 2.294958 1.0 -0.558564
v -2.743006 1.0 -0.434152
v -2.411072 1.0 -0.021478
v 2.798868 1.0 -1.304739
v -1.944571 1.0 1.360085
v -1.881772 1.0 1.781731
v -2.043253 1.0 3.324774
v -1.020538 1.0 3.208149
v -0.150333 1.0 3.315803
v 0.944553 1.0 2.385017
v 2.818249 1.0 -1.58092

# 240 Texture Coordinates
vt 0.829701 0.703053
vt 0.696281 0.979177
vt 0.651636 0.944711
vt 0.320756 0.323358
vt 0.308808 0.364341
vt 0.23902 0.343995
vt 0.764693 0.552683
vt 0.827969 0.654787
vt 0.798274 0.668655
vt 0.982943 0.768857
vt 0.982943 0.800356
vt 0.950052 0.768857
vt 0.165812 0.013819
vt 0.254974 0.02416
vt 0.297053 0.089889
vt 0.982943 0.695551
vt 0.978356 0.732965
vt 0.950052 0.695551
vt 0.589859 0.147181
vt 0.738251 0.478039
vt 0.681842 0.497967
vt 0.973343 0.37679
vt 0.982943 0.668457
vt 0.950052 0.668457
vt 0.217938 0.676032
vt 0.209264 0.705782
vt 0.139477 0.685436
vt 0.258381 0.537307
vt 0.247606 0.574267
vt 0.177819 0.553921
vt 0.308808 0.364341
vt 0.280142 0.462667
vt 0.210354 0.442321
vt 0.827969 0.654787
vt 0.829701 0.703053
vt 0.798274 0.668655
vt 0.982943 0.800356
vt 0.982943 0.986813
vt 0.950052 0.800357
vt 0.254974 0.02416
vt 0.415789 0.022258
vt 0.409126 0.075291
vt 0.738251 0.478039
vt 0.764693 0.552683
vt 0.732534 0.57391
vt 0.978356 0.732965
vt 0.982943 0.768857
vt 0.950052 0.768857
vt 0.982943 0.668457
vt 0.982943 0.695551
vt 0.950052 0.668457
vt 0.209264 0.705782
vt 0.177698 0.814056
vt 0.10791 0.79371
vt 0.415789 0.022258
vt 0.589859 0.147181
vt 0.409126 0.075291
vt 0.247606 0.574267
vt 0.217938 0.676032
vt 0.177819 0.553921
vt 0.280142 0.462667
vt 0.258381 0.537307
vt 0.188594 0.516961
vt 0.297517 0.090488
vt 0.187916 0.276407
vt 0.1649 0.076777
vt 0.187069 0.276384
vt 0.296236 0.09021
vt 0.163587 0.076808
vt 0.791507 0.703534
vt 0.829701 0.703053
vt 0.651636 0.944711
vt 0.250968 0.303012
vt 0.320756 0.323358
vt 0.23902 0.343995
vt 0.732534 0.57391
vt 0.764693 0.552683
vt 0.798274 0.668655
vt 0.982943 0.695551
vt 0.950052 0.695551
vt 0.950052 0.668457
vt 0.164473 0.07791
vt 0.165812 0.013819
vt 0.297053 0.089889
vt 0.829701 0.703053
vt 0.791507 0.703534
vt 0.798274 0.668655
vt 0.553606 0.193817
vt 0.589859 0.147181
vt 0.681842 0.497967
vt 0.919332 0.38127
vt 0.973343 0.37679
vt 0.950052 0.668457
vt 0.14815 0.655685
vt 0.217938 0.676032
vt 0.139477 0.685436
vt 0.188594 0.516961
vt 0.258381 0.537307
vt 0.177819 0.553921
vt 0.23902 0.343995
vt 0.308808 0.364341
vt 0.210354 0.442321
vt 0.217938 0.676032
vt 0.14815 0.655685
vt 0.177819 0.553921
vt 0.297053 0.089889
vt 0.254974 0.02416
vt 0.409126 0.075291
vt 0.681842 0.497967
vt 0.738251 0.478039
vt 0.732534 0.57391
vt 0.950052 0.732965
vt 0.978356 0.732965
vt 0.950052 0.768857
vt 0.978356 0.732965
vt 0.950052 0.732965
vt 0.950052 0.695551
vt 0.139477 0.685436
vt 0.209264 0.705782
vt 0.10791 0.79371
vt 0.982943 0.800356
vt 0.950052 0.800357
vt 0.950052 0.768857
vt 0.589859 0.147181
vt 0.553606 0.193817
vt 0.409126 0.075291
vt 0.210354 0.442321
vt 0.280142 0.462667
vt 0.188594 0.516961
vt 0.078245 0.94133
vt 0.27039 0.972561
vt 0.298052 0.954774
vt 0.410077 0.07536
vt 0.553151 0.19442
vt 0.297517 0.090488
vt 0.297517 0.090488
vt 0.553151 0.19442
vt 0.187916 0.276407
vt 0.187916 0.276407
vt 0.553151 0.19442
vt 0.180357 0.331102
vt 0.269613 0.972775
vt 0.077541 0.941097
vt 0.297315 0.955054
vt 0.335172 0.949648
vt 0.121519 0.510804
vt 0.079216 0.564804
vt 0.335172 0.949648
vt 0.371385 0.96429
vt 0.731906 0.57253
vt 0.077541 0.941097
vt 0.03389 0.878806
vt 0.297315 0.955054
vt 0.297315 0.955054
vt 0.036619 0.696335
vt 0.334447 0.950015
vt 0.732061 0.573824
vt 0.798343 0.669779
vt 0.801229 0.705523
vt 0.370626 0.964741
vt 0.732061 0.573824
vt 0.682363 0.980414
vt 0.12182 0.510673
vt 0.715151 0.49636
vt 0.732061 0.573824
vt 0.731906 0.57253
vt 0.371385 0.96429
vt 0.683158 0.979235
vt 0.03389 0.878806
vt 0.036619 0.696335
vt 0.297315 0.955054
vt 0.334447 0.950015
vt 0.12182 0.510673
vt 0.732061 0.573824
vt 0.682363 0.980414
vt 0.382695 0.990324
vt 0.370626 0.964741
vt 0.370626 0.964741
vt 0.334447 0.950015
vt 0.732061 0.573824
vt 0.801382 0.704068
vt 0.731906 0.57253
vt 0.683158 0.979235
vt 0.383514 0.989845
vt 0.683158 0.979235
vt 0.371385 0.96429
vt 0.552111 0.193546
vt 0.40876 0.074819
vt 0.296236 0.09021
vt 0.552111 0.193546
vt 0.296236 0.09021
vt 0.187069 0.276384
vt 0.714816 0.495106
vt 0.552111 0.193546
vt 0.179638 0.331097
vt 0.034449 0.879141
vt 0.078245 0.94133
vt 0.298052 0.954774
vt 0.036752 0.696664
vt 0.034449 0.879141
vt 0.298052 0.954774
vt 0.079216 0.564804
vt 0.036752 0.696664
vt 0.335172 0.949648
vt 0.036752 0.696664
vt 0.298052 0.954774
vt 0.335172 0.949648
vt 0.12182 0.510673
vt 0.334447 0.950015
vt 0.079391 0.564574
vt 0.798412 0.668331
vt 0.731906 0.57253
vt 0.801382 0.704068
vt 0.036619 0.696335
vt 0.079391 0.564574
vt 0.334447 0.950015
vt 0.732061 0.573824
vt 0.801229 0.705523
vt 0.682363 0.980414
vt 0.12182 0.510673
vt 0.180357 0.331102
vt 0.715151 0.49636
vt 0.179638 0.331097
vt 0.121519 0.510804
vt 0.714816 0.495106
vt 0.982943 0.986813
vt 0.919332 0.986813
vt 0.950052 0.800357
vt 0.552111 0.193546
vt 0.187069 0.276384
vt 0.179638 0.331097
vt 0.121519 0.510804
vt 0.335172 0.949648
vt 0.731906 0.57253
vt 0.714816 0.495106
vt 0.121519 0.510804
vt 0.731906 0.57253
vt 0.553151 0.19442
vt 0.715151 0.49636
vt 0.180357 0.331102

# 240 Vertex Normals
vn 0.984849 0.0 -0.173414
vn 0.370162 0.0 -0.928967
vn 0.714217 0.0 -0.699925
vn -0.541341 0.0 -0.840803
vn -0.983822 0.0 -0.179151
vn -0.922951 0.0 -0.384918
vn 0.893887 0.0 0.448293
vn 0.945387 0.0 0.32595
vn 0.945387 0.0 0.32595
vn 0.334879 0.0 -0.942261
vn 0.314078 0.0 -0.949397
vn 0.334879 0.0 -0.942261
vn 0.1133 0.0 0.993561
vn -0.044359 0.0 0.999016
vn 0.034825 0.0 0.999393
vn -0.782098 0.0 -0.623156
vn -0.135939 0.0 -0.990717
vn -0.596855 0.0 -0.802349
vn 0.781282 0.0 0.624178
vn 0.956322 0.0 0.292314
vn 0.925029 0.0 0.379897
vn 0.370162 0.0 -0.928967
vn -0.530331 0.0 -0.847791
vn -0.530331 0.0 -0.847791
vn -0.972106 0.0 0.234541
vn -0.999791 0.0 -0.020428
vn -0.997952 0.0 0.063965
vn -0.847109 0.0 0.531419
vn -0.876856 0.0 0.480754
vn -0.876856 0.0 0.480754
vn -0.983822 0.0 -0.179151
vn -0.974774 0.0 0.223196
vn -0.992225 0.0 0.12446
vn 0.945387 0.0 0.32595
vn 0.984849 0.0 -0.173414
vn 0.945387 0.0 0.32595
vn 0.314078 0.0 -0.949397
vn -0.541341 0.0 -0.840803
vn 0.065086 0.0 -0.99788
vn -0.044359 0.0 0.999016
vn 0.286661 0.0 0.958032
vn 0.286661 0.0 0.958032
vn 0.956322 0.0 0.292314
vn 0.893887 0.0 0.448293
vn 0.944896 0.0 0.327371
vn -0.135939 0.0 -0.990717
vn 0.334879 0.0 -0.942261
vn 0.334879 0.0 -0.942261
vn -0.530331 0.0 -0.847791
vn -0.782098 0.0 -0.623156
vn -0.530331 0.0 -0.847791
vn -0.999791 0.0 -0.020428
vn -0.994569 0.0 -0.104083
vn -0.994569 0.0 -0.104083
vn 0.286661 0.0 0.958032
vn 0.781282 0.0 0.624178
vn 0.286661 0.0 0.958032
vn -0.876856 0.0 0.480754
vn -0.972106 0.0 0.234541
vn -0.876856 0.0 0.480754
vn -0.974774 0.0 0.223196
vn -0.847109 0.0 0.531419
vn -0.904105 0.0 0.42731
vn 0.0 1.0 0.0
vn 0.0 1.0 0.0
vn 0.0 1.0 0.0
vn 0.0 -1.0 0.0
vn 0.0 -1.0 0.0
vn 0.0 -1.0 0.0
vn 0.984849 0.0 -0.173414
vn 0.984849 0.0 -0.173414
vn 0.714217 0.0 -0.699925
vn -0.541341 0.0 -0.840803
vn -0.541341 0.0 -0.840803
vn -0.922951 0.0 -0.384918
vn 0.944896 0.0 0.327371
vn 0.893887 0.0 0.448293
vn 0.945387 0.0 0.32595
vn -0.782098 0.0 -0.623156
vn -0.596855 0.0 -0.802349
vn -0.530331 0.0 -0.847791
vn 0.1133 0.0 0.993561
vn 0.1133 0.0 0.993561
vn 0.034825 0.0 0.999393
vn 0.984849 0.0 -0.173414
vn 0.984849 0.0 -0.173414
vn 0.945387 0.0 0.32595
vn 0.781282 0.0 0.624178
vn 0.781282 0.0 0.624178
vn 0.925029 0.0 0.379897
vn 0.714217 0.0 -0.699925
vn 0.370162 0.0 -0.928967
vn -0.530331 0.0 -0.847791
vn -0.972106 0.0 0.234541
vn -0.972106 0.0 0.234541
vn -0.997952 0.0 0.063965
vn -0.904105 0.0 0.42731
vn -0.847109 0.0 0.531419
vn -0.876856 0.0 0.480754
vn -0.922951 0.0 -0.384918
vn -0.983822 0.0 -0.179151
vn -0.992225 0.0 0.12446
vn -0.972106 0.0 0.234541
vn -0.972106 0.0 0.234541
vn -0.876856 0.0 0.480754
vn 0.034825 0.0 0.999393
vn -0.044359 0.0 0.999016
vn 0.286661 0.0 0.958032
vn 0.925029 0.0 0.379897
vn 0.956322 0.0 0.292314
vn 0.944896 0.0 0.327371
vn -0.135939 0.0 -0.990717
vn -0.135939 0.0 -0.990717
vn 0.334879 0.0 -0.942261
vn -0.135939 0.0 -0.990717
vn -0.135939 0.0 -0.990717
vn -0.596855 0.0 -0.802349
vn -0.997952 0.0 0.063965
vn -0.999791 0.0 -0.020428
vn -0.994569 0.0 -0.104083
vn 0.314078 0.0 -0.949397
vn 0.065086 0.0 -0.99788
vn 0.334879 0.0 -0.942261
vn 0.781282 0.0 0.624178
vn 0.781282 0.0 0.624178
vn 0.286661 0.0 0.958032
vn -0.992225 0.0 0.12446
vn -0.974774 0.0 0.223196
vn -0.904105 0.0 0.42731
vn 0.0 -1.0 0.0
vn 0.0 -1.0 0.0
vn 0.0 -1.0 0.0
vn 0.0 1.0 0.0
vn 0.0 1.0 0.0
vn 0.0 1.0 0.0
vn 0.0 1.0 0.0
vn 0.0 1.0 0.0
vn 0.0 1.0 0.0
vn 0.0 1.0 0.0
vn 0.0 1.0 0.0
vn 0.0 1.0 0.0
vn 0.0 1.0 0.0
vn 0.0 1.0 0.0
vn 0.0 1.0 0.0
vn 0.0 -1.0 0.0
vn 0.0 -1.0 0.0
vn 0.0 -1.0 0.0
vn 0.0 -1.0 0.0
vn 0.0 -1.0 0.0
vn 0.0 -1.0 0.0
vn 0.0 1.0 0.0
vn 0.0 1.0 0.0
vn 0.0 1.0 0.0
vn 0.0 1.0 0.0
vn 0.0 1.0 0.0
vn 0.0 1.0 0.0
vn -0.0 1.0 0.0
vn -0.0 1.0 0.0
vn -0.0 1.0 0.0
vn 0.0 1.0 0.0
vn -0.0 1.0 0.0
vn 0.0 1.0 0.0
vn 0.0 1.0 0.0
vn 0.0 1.0 0.0
vn -0.0 1.0 0.0
vn 0.0 -1.0 0.0
vn 0.0 -1.0 0.0
vn 0.0 -1.0 0.0
vn 0.0 1.0 0.0
vn 0.0 1.0 0.0
vn 0.0 1.0 0.0
vn 0.0 1.0 0.0
vn 0.0 1.0 0.0
vn -0.0 1.0 0.0
vn 0.0 1.0 0.0
vn 0.0 1.0 0.0
vn 0.0 1.0 0.0
vn 0.0 1.0 0.0
vn 0.0 1.0 0.0
vn -0.0 1.0 0.0
vn 0.0 -1.0 0.0
vn 0.0 -1.0 0.0
vn 0.0 -1.0 0.0
vn 0.0 -1.0 0.0
vn 0.0 -1.0 0.0
vn 0.0 -1.0 0.0
vn 0.0 -1.0 0.0
vn 0.0 -1.0 0.0
vn 0.0 -1.0 0.0
vn 0.0 -1.0 0.0
vn 0.0 -1.0 0.0
vn 0.0 -1.0 0.0
vn 0.0 -1.0 0.0
vn 0.0 -1.0 0.0
vn 0.0 -1.0 0.0
vn 0.0 -1.0 0.0
vn 0.0 -1.0 0.0
vn 0.0 -1.0 0.0
vn 0.0 -1.0 0.0
vn 0.0 -1.0 0.0
vn 0.0 -1.0 0.0
vn 0.0 -1.0 0.0
vn 0.0 -1.0 0.0
vn 0.0 -1.0 0.0
vn 0.0 -1.0 0.0
vn 0.0 -1.0 0.0
vn 0.0 -1.0 0.0
vn 0.0 1.0 0.0
vn 0.0 1.0 0.0
vn 0.0 1.0 0.0
vn 0.0 -1.0 0.0
vn 0.0 -1.0 0.0
vn 0.0 -1.0 0.0
vn 0.0 1.0 0.0
vn 0.0 1.0 0.0
vn 0.0 1.0 0.0
vn -0.0 1.0 0.0
vn -0.0 1.0 0.0
vn 0.0 1.0 0.0
vn 0.0 1.0 0.0
vn 0.0 1.0 0.0
vn 0.0 1.0 0.0
vn 0.0 -1.0 0.0
vn 0.0 -1.0 0.0
vn 0.0 -1.0 0.0
vn -0.541341 0.0 -0.840803
vn -0.541341 0.0 -0.840803
vn 0.065086 0.0 -0.99788
vn 0.0 -1.0 0.0
vn 0.0 -1.0 0.0
vn 0.0 -1.0 0.0
vn 0.0 -1.0 0.0
vn 0.0 -1.0 0.0
vn 0.0 -1.0 0.0
vn 0.0 -1.0 0.0
vn 0.0 -1.0 0.0
vn 0.0 -1.0 0.0
vn 0.0 1.0 0.0
vn 0.0 1.0 0.0
vn 0.0 1.0 0.0

# skin, 80 grouped triangles

usemtl skin
o skin
g skin

f 26/1/1 7/2/2 3/3/3
f 12/4/4 14/5/5 30/6/6
f 16/7/7 19/8/8 35/9/9
f 10/10/10 11/11/11 27/12/12
f 22/13/13 23/14/14 39/15/15
f 6/16/16 9/17/17 4/18/18
f 25/19/19 8/20/20 2/21/21
f 7/22/22 5/23/23 13/24/24
f 20/25/25 21/26/26 37/27/27
f 17/28/28 18/29/29 34/30/30
f 14/31/31 15/32/32 31/33/33
f 19/34/34 26/35/35 35/36/36
f 11/37/37 12/38/38 28/39/39
f 23/40/40 24/41/41 40/42/42
f 8/43/43 16/44/44 32/45/45
f 9/46/46 10/47/47 27/48/48
f 5/49/49 6/50/50 13/51/51
f 21/52/52 22/53/53 38/54/54
f 24/55/55 25/56/56 40/57/57
f 18/58/58 20/59/59 34/60/60
f 15/61/61 17/62/62 33/63/63
f 39/64/64 37/65/65 38/66/66
f 21/67/67 23/68/68 22/69/69
f 42/70/70 26/71/71 3/72/72
f 29/73/73 12/74/74 30/75/75
f 32/76/76 16/77/77 35/78/78
f 6/79/79 4/80/80 13/81/81
f 38/82/82 22/83/83 39/84/84
f 26/85/85 42/86/86 35/87/87
f 41/88/88 25/89/89 2/90/90
f 3/91/91 7/92/92 13/93/93
f 36/94/94 20/95/95 37/96/96
f 33/97/97 17/98/98 34/99/99
f 30/100/100 14/101/101 31/102/102
f 20/103/103 36/104/104 34/105/105
f 39/106/106 23/107/107 40/108/108
f 2/109/109 8/110/110 32/111/111
f 1/112/112 9/113/113 27/114/114
f 9/115/115 1/116/116 4/117/117
f 37/118/118 21/119/119 38/120/120
f 11/121/121 28/122/122 27/123/123
f 25/124/124 41/125/125 40/126/126
f 31/127/127 15/128/128 33/129/129
f 12/130/130 11/131/131 10/132/132
f 40/133/133 41/134/134 39/135/135
f 39/136/136 41/137/137 37/138/138
f 37/139/139 41/140/140 36/141/141
f 28/142/142 29/143/143 27/144/144
f 9/145/145 18/146/146 17/147/147
f 9/148/148 6/149/149 16/150/150
f 29/151/151 30/152/152 27/153/153
f 27/154/154 31/155/155 1/156/156
f 32/157/157 35/158/158 42/159/159
f 4/160/160 32/161/161 3/162/162
f 34/163/163 2/164/164 32/165/165
f 16/166/166 6/167/167 7/168/168
f 30/169/169 31/170/170 27/171/171
f 1/172/172 34/173/173 32/174/174
f 3/175/175 13/176/176 4/177/177
f 4/178/178 1/179/179 32/180/180
f 26/181/181 16/182/182 7/183/183
f 5/184/184 7/185/185 6/186/186
f 25/187/187 24/188/188 23/189/189
f 25/190/190 23/191/191 21/192/192
f 8/193/193 25/194/194 20/195/195
f 14/196/196 12/197/197 10/198/198
f 15/199/199 14/200/200 10/201/201
f 17/202/202 15/203/203 9/204/204
f 15/205/205 10/206/206 9/207/207
f 34/208/208 1/209/209 33/210/210
f 19/211/211 16/212/212 26/213/213
f 31/214/214 33/215/215 1/216/216
f 32/217/217 42/218/218 3/219/219
f 34/220/220 36/221/221 2/222/222
f 20/223/223 18/224/224 8/225/225
f 12/226/226 29/227/227 28/228/228
f 25/229/229 21/230/230 20/231/231
f 18/232/232 9/233/233 16/234/234
f 8/235/235 18/236/236 16/237/237
f 41/238/238 2/239/239 36/240/240
