# Wavefront OBJ file
# Exported by Misfit Model 3D 1.3.7
# Thu Apr 10 02:44:46 2014

mtllib untitled.mtl

# 44 Vertices
v -1.0 0.0 1.0
v -1.0 0.0 -1.0
v 1.0 0.0 -1.0
v 1.0 0.0 1.0
v -1.19 1.976667 1.19
v -1.19 1.976667 -1.19
v 1.19 1.976667 -1.19
v 1.19 1.976667 1.19
v -1.1 -0.1 1.1
v -1.1 -0.1 -1.1
v 1.1 -0.1 -1.1
v 1.1 -0.1 1.1
v -1.36 2.146666 1.36
v -1.36 2.146666 -1.36
v 1.36 2.146666 -1.36
v 1.36 2.146666 1.36
v 0.5616 5.0 0.5616
v 0.5616 5.0 -0.5616
v -0.5616 5.0 0.5616
v -0.5616 5.0 -0.5616
v -0.35 4.0 0.35
v -0.35 4.0 -0.35
v 0.35 4.0 -0.35
v 0.35 4.0 0.35
v -0.432 4.1 0.432
v -0.432 4.1 -0.432
v 0.432 4.1 -0.432
v 0.432 4.1 0.432
v -0.455 5.8 0.455
v -0.455 5.8 -0.455
v 0.455 5.8 -0.455
v 0.455 5.8 0.455
v -0.315 3.6 0.315
v -0.315 3.6 -0.315
v 0.315 3.6 -0.315
v 0.315 3.6 0.315
v 0.41928 5.1 0.41928
v 0.41928 5.1 -0.41928
v -0.41928 5.1 0.41928
v -0.41928 5.1 -0.41928
v -0.364 6.0 0.364
v -0.364 6.0 -0.364
v 0.364 6.0 -0.364
v 0.364 6.0 0.364

# 234 Texture Coordinates
vt 0.745182 0.557015
vt 0.838137 0.416208
vt 0.979541 0.456377
vt 0.745182 0.557015
vt 0.979541 0.456377
vt 0.914621 0.622969
vt 0.838137 0.416208
vt 0.867474 0.29594
vt 0.999835 0.294944
vt 0.838137 0.416208
vt 0.999835 0.294944
vt 0.979541 0.456377
vt 0.867474 0.29594
vt 0.854832 0.174979
vt 0.977263 0.14453
vt 0.867474 0.29594
vt 0.977263 0.14453
vt 0.999835 0.294944
vt 0.854832 0.174979
vt 0.790171 0.026125
vt 0.937305 0.000165
vt 0.854832 0.174979
vt 0.937305 0.000165
vt 0.977263 0.14453
vt 0.383279 0.624304
vt 0.383279 0.483943
vt 0.52364 0.483943
vt 0.383279 0.624304
vt 0.52364 0.483943
vt 0.52364 0.624304
vt 0.700987 0.341424
vt 0.71145 0.286102
vt 0.867474 0.29594
vt 0.700987 0.341424
vt 0.867474 0.29594
vt 0.838137 0.416208
vt 0.661196 0.208532
vt 0.476021 0.166287
vt 0.461876 0.000165
vt 0.661196 0.208532
vt 0.461876 0.000165
vt 0.659275 0.000165
vt 0.476021 0.166287
vt 0.33806 0.181237
vt 0.287231 0.040458
vt 0.476021 0.166287
vt 0.287231 0.040458
vt 0.461876 0.000165
vt 0.33806 0.181237
vt 0.215723 0.237374
vt 0.139544 0.117432
vt 0.33806 0.181237
vt 0.139544 0.117432
vt 0.287231 0.040458
vt 0.215723 0.237374
vt 0.076053 0.361176
vt 0.000165 0.207273
vt 0.215723 0.237374
vt 0.000165 0.207273
vt 0.139544 0.117432
vt 0.228551 0.63834
vt 0.228551 0.483943
vt 0.382948 0.483943
vt 0.228551 0.63834
vt 0.382948 0.483943
vt 0.382948 0.63834
vt 0.661526 0.383284
vt 0.700987 0.341424
vt 0.838137 0.416208
vt 0.661526 0.383284
vt 0.838137 0.416208
vt 0.745182 0.557015
vt 0.3752 0.335766
vt 0.449295 0.321573
vt 0.444741 0.39001
vt 0.3752 0.335766
vt 0.444741 0.39001
vt 0.398327 0.391489
vt 0.71145 0.286102
vt 0.697935 0.231034
vt 0.854832 0.174979
vt 0.71145 0.286102
vt 0.854832 0.174979
vt 0.867474 0.29594
vt 0.449295 0.321573
vt 0.525607 0.344823
vt 0.499557 0.424772
vt 0.449295 0.321573
vt 0.499557 0.424772
vt 0.444741 0.39001
vt 0.697935 0.231034
vt 0.661526 0.183567
vt 0.790171 0.026125
vt 0.697935 0.231034
vt 0.790171 0.026125
vt 0.854832 0.174979
vt 0.271945 0.434254
vt 0.315052 0.376818
vt 0.353287 0.41753
vt 0.271945 0.434254
vt 0.353287 0.41753
vt 0.317757 0.483612
vt 0.076053 0.361176
vt 0.215723 0.237374
vt 0.315052 0.376818
vt 0.076053 0.361176
vt 0.315052 0.376818
vt 0.271945 0.434254
vt 0.215723 0.237374
vt 0.33806 0.181237
vt 0.3752 0.335766
vt 0.215723 0.237374
vt 0.3752 0.335766
vt 0.315052 0.376818
vt 0.476021 0.166287
vt 0.661196 0.208532
vt 0.525607 0.344823
vt 0.476021 0.166287
vt 0.525607 0.344823
vt 0.449295 0.321573
vt 0.33806 0.181237
vt 0.476021 0.166287
vt 0.449295 0.321573
vt 0.33806 0.181237
vt 0.449295 0.321573
vt 0.3752 0.335766
vt 0.315052 0.376818
vt 0.3752 0.335766
vt 0.398327 0.391489
vt 0.315052 0.376818
vt 0.398327 0.391489
vt 0.353287 0.41753
vt 0.221153 0.78803
vt 0.279339 0.788155
vt 0.279338 0.928312
vt 0.221153 0.78803
vt 0.279338 0.928312
vt 0.222849 0.912157
vt 0.116881 0.914001
vt 0.171654 0.909453
vt 0.171767 0.924632
vt 0.116881 0.914001
vt 0.171767 0.924632
vt 0.12 0.930599
vt 0.164373 0.789819
vt 0.221153 0.78803
vt 0.222849 0.912157
vt 0.164373 0.789819
vt 0.222849 0.912157
vt 0.171654 0.909453
vt 0.054296 0.795455
vt 0.10775 0.793512
vt 0.116881 0.914001
vt 0.054296 0.795455
vt 0.116881 0.914001
vt 0.051283 0.933432
vt 0.10775 0.793512
vt 0.164373 0.789819
vt 0.171654 0.909453
vt 0.10775 0.793512
vt 0.171654 0.909453
vt 0.116881 0.914001
vt 0.282554 0.918792
vt 0.23509 0.931461
vt 0.230196 0.903601
vt 0.282554 0.918792
vt 0.230196 0.903601
vt 0.272913 0.892199
vt 0.23509 0.931461
vt 0.186149 0.935727
vt 0.186149 0.907441
vt 0.23509 0.931461
vt 0.186149 0.907441
vt 0.230196 0.903601
vt 0.137208 0.931461
vt 0.089743 0.918792
vt 0.099384 0.892199
vt 0.137208 0.931461
vt 0.099384 0.892199
vt 0.142102 0.903601
vt 0.186149 0.935727
vt 0.137208 0.931461
vt 0.142102 0.903601
vt 0.186149 0.935727
vt 0.142102 0.903601
vt 0.186149 0.907441
vt 0.398327 0.391489
vt 0.444741 0.39001
vt 0.441934 0.398936
vt 0.398327 0.391489
vt 0.441934 0.398936
vt 0.400787 0.401416
vt 0.317757 0.483612
vt 0.353287 0.41753
vt 0.361957 0.426235
vt 0.317757 0.483612
vt 0.361957 0.426235
vt 0.337433 0.479762
vt 0.444741 0.39001
vt 0.499557 0.424772
vt 0.485897 0.428819
vt 0.444741 0.39001
vt 0.485897 0.428819
vt 0.441934 0.398936
vt 0.353287 0.41753
vt 0.398327 0.391489
vt 0.400787 0.401416
vt 0.353287 0.41753
vt 0.400787 0.401416
vt 0.361957 0.426235
vt 0.155659 0.934831
vt 0.20675 0.934831
vt 0.20675 0.985922
vt 0.155659 0.934831
vt 0.20675 0.985922
vt 0.155659 0.985922
vt 0.051283 0.933432
vt 0.116881 0.914001
vt 0.12 0.930599
vt 0.051283 0.933432
vt 0.12 0.930599
vt 0.064803 0.949947
vt 0.222849 0.912157
vt 0.279338 0.928312
vt 0.268768 0.94106
vt 0.222849 0.912157
vt 0.268768 0.94106
vt 0.220334 0.926098
vt 0.171654 0.909453
vt 0.222849 0.912157
vt 0.220334 0.926098
vt 0.171654 0.909453
vt 0.220334 0.926098
vt 0.171767 0.924632

# 234 Vertex Normals
vn -0.997836 0.06576 0.0
vn -0.973239 0.229797 0.0
vn -0.858088 -0.513502 0.0
vn -0.997836 0.06576 0.0
vn -0.858088 -0.513502 0.0
vn -0.429044 -0.903284 0.0
vn 0.0 0.06576 -0.997836
vn 0.0 0.229797 -0.973239
vn 0.0 -0.740162 -0.672428
vn 0.0 0.06576 -0.997836
vn 0.0 -0.740162 -0.672428
vn 0.0 -0.740162 -0.672428
vn 0.997836 0.06576 0.0
vn 0.973239 0.229797 0.0
vn 0.858088 -0.513502 0.0
vn 0.997836 0.06576 0.0
vn 0.858088 -0.513502 0.0
vn 0.429044 -0.903284 0.0
vn 0.0 0.06576 0.997836
vn 0.0 0.229797 0.973239
vn 0.0 -0.740162 0.672428
vn 0.0 0.06576 0.997836
vn 0.0 -0.740162 0.672428
vn 0.0 -0.740162 0.672428
vn -0.311908 -0.716635 0.623817
vn -0.7743 -0.500575 -0.38715
vn 0.311908 -0.716635 -0.623817
vn -0.311908 -0.716635 0.623817
vn 0.311908 -0.716635 -0.623817
vn 0.7743 -0.500575 0.38715
vn -0.184347 0.183177 -0.965641
vn 0.416738 0.213575 -0.883581
vn 0.2914 0.332741 -0.896866
vn -0.184347 0.183177 -0.965641
vn 0.2914 0.332741 -0.896866
vn -0.515785 0.267763 -0.813799
vn -0.997633 0.068764 0.0
vn -0.966522 0.256582 0.0
vn -0.850259 -0.526365 0.0
vn -0.997633 0.068764 0.0
vn -0.850259 -0.526365 0.0
vn -0.425129 -0.905133 0.0
vn 0.0 0.068764 -0.997633
vn 0.0 0.256582 -0.966522
vn 0.0 -0.746646 -0.665222
vn 0.0 0.068764 -0.997633
vn 0.0 -0.746646 -0.665222
vn 0.0 -0.746646 -0.665222
vn 0.997633 0.068764 0.0
vn 0.966522 0.256582 0.0
vn 0.850259 -0.526365 0.0
vn 0.997633 0.068764 0.0
vn 0.850259 -0.526365 0.0
vn 0.425129 -0.905133 0.0
vn 0.0 0.068764 0.997633
vn 0.0 0.256582 0.966522
vn 0.0 -0.746646 0.665222
vn 0.0 0.068764 0.997633
vn 0.0 -0.746646 0.665222
vn 0.0 -0.746646 0.665222
vn -0.307553 -0.725987 0.615105
vn -0.765115 -0.517927 -0.382558
vn 0.307553 -0.725987 -0.615105
vn -0.307553 -0.725987 0.615105
vn 0.307553 -0.725987 -0.615105
vn 0.765115 -0.517927 0.382558
vn -0.965641 0.183177 0.184347
vn -0.883581 0.213575 -0.416738
vn -0.896866 0.332741 -0.2914
vn -0.965641 0.183177 0.184347
vn -0.896866 0.332741 -0.2914
vn -0.813799 0.267763 0.515785
vn 0.324733 0.000502 -0.945806
vn -0.573288 0.124716 -0.809806
vn -0.357679 0.14116 -0.923114
vn 0.324733 0.000502 -0.945806
vn -0.357679 0.14116 -0.923114
vn 0.627318 0.383075 -0.678031
vn 0.965641 0.183177 -0.184347
vn 0.883581 0.213574 0.416738
vn 0.896866 0.332741 0.2914
vn 0.965641 0.183177 -0.184347
vn 0.896866 0.332741 0.2914
vn 0.813799 0.267763 -0.515785
vn -0.945806 0.000502 -0.324733
vn -0.809806 0.124716 0.573288
vn -0.923114 0.14116 0.357679
vn -0.945806 0.000502 -0.324733
vn -0.923114 0.14116 0.357679
vn -0.678031 0.383074 -0.627318
vn 0.184347 0.183177 0.965641
vn -0.416738 0.213575 0.883581
vn -0.2914 0.332741 0.896866
vn 0.184347 0.183177 0.965641
vn -0.2914 0.332741 0.896866
vn 0.515785 0.267763 0.813799
vn -0.324733 0.000502 0.945806
vn 0.573288 0.124716 0.809806
vn 0.357679 0.14116 0.923114
vn -0.324733 0.000502 0.945806
vn 0.357679 0.14116 0.923114
vn -0.627318 0.383075 0.678031
vn -0.28521 0.370197 0.884087
vn 0.506245 0.296332 0.809878
vn 0.286411 0.363014 0.886674
vn -0.28521 0.370197 0.884087
vn 0.286411 0.363014 0.886674
vn -0.509353 0.282604 0.812831
vn 0.884087 0.370197 0.28521
vn 0.809878 0.296332 -0.506245
vn 0.886674 0.363014 -0.286411
vn 0.884087 0.370197 0.28521
vn 0.886674 0.363014 -0.286411
vn 0.812831 0.282604 0.509353
vn -0.884087 0.370197 -0.28521
vn -0.809878 0.296332 0.506245
vn -0.886674 0.363014 0.286411
vn -0.884087 0.370197 -0.28521
vn -0.886674 0.363014 0.286411
vn -0.812831 0.282604 -0.509353
vn 0.28521 0.370197 -0.884087
vn -0.506245 0.296332 -0.809878
vn -0.286411 0.363014 -0.886674
vn 0.28521 0.370197 -0.884087
vn -0.286411 0.363014 -0.886674
vn 0.509353 0.282604 -0.812831
vn 0.945806 0.000502 0.324733
vn 0.809806 0.124716 -0.573288
vn 0.923114 0.14116 -0.357679
vn 0.945806 0.000502 0.324733
vn 0.923114 0.14116 -0.357679
vn 0.678031 0.383074 0.627318
vn -0.998948 0.045859 0.0
vn -0.993957 0.109772 0.0
vn -0.994797 0.101874 0.0
vn -0.998948 0.045859 0.0
vn -0.994797 0.101874 0.0
vn -0.964649 0.263536 0.0
vn 0.883616 0.371225 0.285333
vn 0.805236 0.311912 -0.504287
vn 0.475518 0.846967 -0.237759
vn 0.883616 0.371225 0.285333
vn 0.475518 0.846967 -0.237759
vn 0.300562 0.74048 0.601125
vn 0.0 0.045859 -0.998948
vn 0.0 0.109772 -0.993957
vn 0.0 0.101874 -0.994797
vn 0.0 0.045859 -0.998948
vn 0.0 0.101874 -0.994797
vn 0.0 0.263536 -0.964649
vn 0.0 0.045859 0.998948
vn 0.0 0.109772 0.993957
vn 0.0 0.101874 0.994797
vn 0.0 0.045859 0.998948
vn 0.0 0.101874 0.994797
vn 0.0 0.263536 0.964649
vn 0.998948 0.045859 0.0
vn 0.993957 0.109772 0.0
vn 0.994797 0.101874 0.0
vn 0.998948 0.045859 0.0
vn 0.994797 0.101874 0.0
vn 0.964649 0.263536 0.0
vn -0.993957 0.109772 0.0
vn -0.998948 0.045859 0.0
vn -0.996194 -0.087167 0.0
vn -0.993957 0.109772 0.0
vn -0.996194 -0.087167 0.0
vn -0.996194 -0.087167 0.0
vn 0.0 0.109772 -0.993957
vn 0.0 0.045859 -0.998948
vn 0.0 -0.087167 -0.996194
vn 0.0 0.109772 -0.993957
vn 0.0 -0.087167 -0.996194
vn 0.0 -0.087167 -0.996194
vn 0.0 0.109772 0.993957
vn 0.0 0.045859 0.998948
vn 0.0 -0.087167 0.996194
vn 0.0 0.109772 0.993957
vn 0.0 -0.087167 0.996194
vn 0.0 -0.087167 0.996194
vn 0.993957 0.109772 0.0
vn 0.998948 0.045859 0.0
vn 0.996194 -0.087167 0.0
vn 0.993957 0.109772 0.0
vn 0.996194 -0.087167 0.0
vn 0.996194 -0.087167 0.0
vn 0.179534 0.72203 -0.668161
vn -0.324511 0.612315 -0.720946
vn -0.207482 0.885865 -0.414963
vn 0.179534 0.72203 -0.668161
vn -0.207482 0.885865 -0.414963
vn 0.414964 0.885865 -0.207482
vn -0.179534 0.72203 0.668161
vn 0.324511 0.612315 0.720946
vn 0.207482 0.885865 0.414963
vn -0.179534 0.72203 0.668161
vn 0.207482 0.885865 0.414963
vn -0.414964 0.885865 0.207482
vn -0.668162 0.72203 -0.179534
vn -0.720946 0.612315 0.324511
vn -0.414964 0.885865 0.207482
vn -0.668162 0.72203 -0.179534
vn -0.414964 0.885865 0.207482
vn -0.207482 0.885865 -0.414963
vn 0.668162 0.72203 0.179534
vn 0.720946 0.612315 -0.324511
vn 0.414964 0.885865 -0.207482
vn 0.668162 0.72203 0.179534
vn 0.414964 0.885865 -0.207482
vn 0.207482 0.885865 0.414963
vn -0.475518 0.846967 0.237759
vn 0.300562 0.74048 0.601125
vn 0.475518 0.846967 -0.237759
vn -0.475518 0.846967 0.237759
vn 0.475518 0.846967 -0.237759
vn -0.300562 0.74048 -0.601125
vn -0.285333 0.371225 0.883616
vn 0.504287 0.311912 0.805236
vn 0.300562 0.74048 0.601125
vn -0.285333 0.371225 0.883616
vn 0.300562 0.74048 0.601125
vn -0.475518 0.846967 0.237759
vn -0.883616 0.371225 -0.285333
vn -0.805236 0.311912 0.504287
vn -0.475518 0.846967 0.237759
vn -0.883616 0.371225 -0.285333
vn -0.475518 0.846967 0.237759
vn -0.300562 0.74048 -0.601125
vn 0.285333 0.371225 -0.883616
vn -0.504287 0.311912 -0.805236
vn -0.300562 0.74048 -0.601125
vn 0.285333 0.371225 -0.883616
vn -0.300562 0.74048 -0.601125
vn 0.475518 0.846967 -0.237759

# skin, 78 grouped triangles

usemtl skin
o skin
g skin

f 5/1/1 6/2/2 2/3/3
f 5/4/4 2/5/5 1/6/6
f 6/7/7 7/8/8 3/9/9
f 6/10/10 3/11/11 2/12/12
f 7/13/13 8/14/14 4/15/15
f 7/16/16 4/17/17 3/18/18
f 8/19/19 5/20/20 1/21/21
f 8/22/22 1/23/23 4/24/24
f 1/25/25 2/26/26 3/27/27
f 1/28/28 3/29/29 4/30/30
f 22/31/31 23/32/32 7/33/33
f 22/34/34 7/35/35 6/36/36
f 13/37/37 14/38/38 10/39/39
f 13/40/40 10/41/41 9/42/42
f 14/43/43 15/44/44 11/45/45
f 14/46/46 11/47/47 10/48/48
f 15/49/49 16/50/50 12/51/51
f 15/52/52 12/53/53 11/54/54
f 16/55/55 13/56/56 9/57/57
f 16/58/58 9/59/59 12/60/60
f 9/61/61 10/62/62 11/63/63
f 9/64/64 11/65/65 12/66/66
f 21/67/67 22/68/68 6/69/69
f 21/70/70 6/71/71 5/72/72
f 27/73/73 26/74/74 20/75/75
f 27/76/76 20/77/77 18/78/78
f 23/79/79 24/80/80 8/81/81
f 23/82/82 8/83/83 7/84/84
f 26/85/85 25/86/86 19/87/87
f 26/88/88 19/89/89 20/90/90
f 24/91/91 21/92/92 5/93/93
f 24/94/94 5/95/95 8/96/96
f 25/97/97 28/98/98 17/99/99
f 25/100/100 17/101/101 19/102/102
f 13/103/103 16/104/104 28/105/105
f 13/106/106 28/107/107 25/108/108
f 16/109/109 15/110/110 27/111/111
f 16/112/112 27/113/113 28/114/114
f 14/115/115 13/116/116 25/117/117
f 14/118/118 25/119/119 26/120/120
f 15/121/121 14/122/122 26/123/123
f 15/124/124 26/125/125 27/126/126
f 28/127/127 27/128/128 18/129/129
f 28/130/130 18/131/131 17/132/132
f 22/133/133 21/134/134 29/135/135
f 22/136/136 29/137/137 30/138/138
f 32/139/139 31/140/140 43/141/141
f 32/142/142 43/143/143 44/144/144
f 23/145/145 22/146/146 30/147/147
f 23/148/148 30/149/149 31/150/150
f 21/151/151 24/152/152 32/153/153
f 21/154/154 32/155/155 29/156/156
f 24/157/157 23/158/158 31/159/159
f 24/160/160 31/161/161 32/162/162
f 21/163/163 22/164/164 34/165/165
f 21/166/166 34/167/167 33/168/168
f 22/169/169 23/170/170 35/171/171
f 22/172/172 35/173/173 34/174/174
f 24/175/175 21/176/176 33/177/177
f 24/178/178 33/179/179 36/180/180
f 23/181/181 24/182/182 36/183/183
f 23/184/184 36/185/185 35/186/186
f 18/187/187 20/188/188 40/189/189
f 18/190/190 40/191/191 38/192/192
f 19/193/193 17/194/194 37/195/195
f 19/196/196 37/197/197 39/198/198
f 20/199/199 19/200/200 39/201/201
f 20/202/202 39/203/203 40/204/204
f 17/205/205 18/206/206 38/207/207
f 17/208/208 38/209/209 37/210/210
f 41/211/211 44/212/212 43/213/213
f 41/214/214 43/215/215 42/216/216
f 29/217/217 32/218/218 44/219/219
f 29/220/220 44/221/221 41/222/222
f 30/223/223 29/224/224 41/225/225
f 30/226/226 41/227/227 42/228/228
f 31/229/229 30/230/230 42/231/231
f 31/232/232 42/233/233 43/234/234
